<?xml version="1.0" encoding="UTF-8"?>
<svg width="752pt" height="752pt" version="1.1" viewBox="0 0 752 752" xmlns="http://www.w3.org/2000/svg">
 <path d="m482.56 336.7c-2.3672-40.254-26.992-74.352-61.566-90.453l14.207-57.777 35.047-8.9961c5.2109-1.4219 8.0508-6.6289 6.6289-11.367-1.4219-5.2109-6.6289-8.0508-11.367-6.6289l-40.254 10.418c-4.2617 0.47266-6.6289 3.3125-7.5781 6.6289l-15.156 61.094c-8.5234-2.3672-17.523-3.3164-26.52-3.3164-56.828 0-103.24 44.516-106.55 100.4-15.629 3.7891-27.469 17.523-27.469 34.57 0 19.418 16.102 35.52 35.52 35.52h4.2617l7.5781 148.7c0.94531 20.363 17.523 35.992 37.887 35.992h96.609c20.363 0 36.938-15.629 37.887-35.992l7.5781-148.7h4.2617c19.418 0 35.52-16.102 35.52-35.52 0.47266-16.574-10.895-30.781-26.52-34.57zm-106.56-81.457c45.938 0 83.824 35.52 87.141 80.508h-174.28c3.3125-44.988 41.199-80.508 87.137-80.508zm67.25 299.3c-0.47266 9.9453-8.9961 17.996-18.941 17.996h-96.613c-9.9453 0-18.469-8.0508-18.941-17.996l-7.5781-147.76h149.65zm31.258-166.7h-197.01c-8.9961 0-16.574-7.5781-16.574-16.574s7.5781-16.574 16.574-16.574h196.54c8.9961 0 16.574 7.5781 16.574 16.574 0.003906 8.9961-7.1016 16.574-16.098 16.574z"/>
</svg>
